<svg width="311" height="1520" viewBox="0 0 311 1520" fill="none" xmlns="http://www.w3.org/2000/svg">

<g id="desktop-section-wrapper" clip-path="url(#clip0_2001_47)">

<path id="Vector" d="M310.5 618.126V900.383C310.5 923.594 305.143 944.322 296.643 959.229C288.133 974.151 276.538 983.145 264.082 983.146L-274.923 983.146V1026.27L-274.676 1026.41L189.604 1300.07L189.604 1517.17L-313.143 1221.73C-322.558 1216.16 -330.653 1205.34 -336.395 1191.45C-342.132 1177.58 -345.5 1160.71 -345.5 1143.12L-345.5 860.866C-345.5 837.655 -340.143 816.927 -331.643 802.021C-323.133 787.098 -311.538 778.104 -299.082 778.104L222.436 778.104V725.114L222.188 724.97L-253.48 445.532C-262.896 439.97 -270.991 429.142 -276.732 415.26C-282.47 401.387 -285.838 384.512 -285.838 366.929V83.2627C-285.838 60.0513 -280.481 39.3238 -271.98 24.417C-263.471 9.49414 -251.875 0.5 -239.419 0.5L190.404 0.5L190.404 206.951L-214.46 206.951V250.073L-214.213 250.219L278.145 539.522C287.56 545.085 295.653 555.914 301.395 569.796C307.132 583.669 310.5 600.543 310.5 618.126Z" stroke="url(#paint0_linear_2001_47)"/>
</g>
<defs>
<linearGradient id="paint0_linear_2001_47" x1="311" y1="759.959" x2="-346" y2="759.959" gradientUnits="userSpaceOnUse">
<stop stop-color="#FC815D"/>
<stop offset="1" stop-color="#FDC18F"/>
</linearGradient>
<clipPath id="clip0_2001_47">
<rect width="1920" height="12316" fill="white" transform="translate(0 -3841.5)"/>
</clipPath>
</defs>
</svg>
