<svg preserveAspectRatio="none" width="100%" height="100%" overflow="visible" style="display: block;" viewBox="0 0 114 18" fill="none" xmlns="http://www.w3.org/2000/svg">
<g id="logo-perfomax 1" clip-path="url(#clip0_0_4)">
<path id="Vector" d="M11.5577 18H10.6401C10.4581 17.94 10.2609 17.9325 10.0789 17.8875C9.41911 17.73 8.8124 17.4 8.30428 16.9725L1.06173 9.825C0.621873 9.315 0.303353 8.7225 0.136509 8.07L0 7.2075C0 7.125 0 7.035 0 6.9525C0.113757 5.1825 1.15274 3.69 2.8591 3.0825C6.01397 2.3025 9.12334 1.3125 12.2858 0.5775C13.5447 0.285 14.5913 0.2775 15.744 0.9375C17.4428 1.905 18.1784 3.7425 17.7613 5.625C17.0712 8.76 15.926 11.91 15.198 15.045C14.7278 16.605 13.211 17.8575 11.5577 18.0075V18ZM14.2121 4.005C13.7495 3.5475 13.0745 3.315 12.4223 3.3825C9.5632 4.1325 6.68135 4.83 3.85258 5.685C1.69878 6.915 2.84393 10.125 5.33901 9.6825C5.77129 9.6075 6.12773 9.4275 6.59792 9.45C7.59899 9.495 8.56972 10.3425 8.66072 11.3475C8.75173 12.3525 8.12227 12.9525 8.56972 14.0325C9.31293 15.825 11.9597 15.75 12.6119 13.9425C13.211 11.3475 14.2197 8.6925 14.7581 6.0975C14.925 5.31 14.796 4.59 14.2045 4.0125L14.2121 4.005Z" fill="var(--fill-0, black)"/>
<path id="Vector_2" d="M77.6128 3.78V4.1775C78.2954 3.7425 79.2888 3.7275 80.0776 3.78C81.018 3.8475 81.837 4.275 82.4589 4.9725C83.5282 3.555 86.0081 3.495 87.4945 4.2225C88.981 4.95 89.2843 6.3225 89.3526 7.875C89.4208 9.4275 89.3526 10.8975 89.3147 12.39C89.3071 12.84 89.3222 13.2975 89.3147 13.7475H87.3429V7.95C87.2746 6.7125 86.7817 5.6475 85.3483 5.73C83.6875 5.8275 83.5585 7.5375 83.4675 8.82V13.7475H81.4199C81.4199 12.6825 81.4199 11.6175 81.4199 10.5525C81.4199 9.075 81.9053 5.6175 79.5391 5.73C77.4763 5.8275 77.6204 8.505 77.6204 9.9375C77.6204 11.205 77.6204 12.48 77.6204 13.7475H75.6107L75.6486 3.7875H77.6204L77.6128 3.78Z" fill="var(--fill-0, black)"/>
<path id="Vector_3" d="M99.8486 4.86V3.99H101.858L101.896 13.7325H99.8486V12.8325C99.204 13.305 98.4607 13.635 97.6644 13.7625C95.8064 14.055 94.1911 13.6575 92.917 12.255C91.2561 10.4175 91.0665 7.7925 92.5378 5.7825C94.2669 3.4125 97.5355 3.1275 99.8486 4.8525V4.86ZM99.8486 8.805C99.8486 7.095 98.4456 5.7075 96.7165 5.7075C94.9874 5.7075 93.5844 7.095 93.5844 8.805C93.5844 10.515 94.9874 11.9025 96.7165 11.9025C98.4456 11.9025 99.8486 10.515 99.8486 8.805Z" fill="var(--fill-0, black)"/>
<path id="Vector_4" d="M25.239 11.9325V17.7825H23.9952V3.8475H25.239V5.295C26.1566 4.2975 27.3473 3.6525 28.7351 3.5625C33.0124 3.2775 36.1521 8.0475 33.5357 11.625C31.6397 14.22 27.2487 14.58 25.239 11.94V11.9325ZM33.0655 8.6475C33.0655 6.5175 31.3212 4.8 29.1674 4.8C27.0136 4.8 25.2693 6.525 25.2693 8.6475C25.2693 10.77 27.0136 12.495 29.1674 12.495C31.3212 12.495 33.0655 10.77 33.0655 8.6475Z" fill="var(--fill-0, black)"/>
<path id="Vector_5" d="M46.4888 9.375H37.6385C37.8357 10.6125 38.5106 11.79 39.7241 12.2775C40.7479 12.69 42.3101 12.69 43.3339 12.27C43.9862 12 44.517 11.52 44.9796 11.0025L45.9731 11.595C44.5549 14.0175 40.9754 14.4675 38.6547 13.08C34.0134 10.305 36.4782 2.835 42.2267 3.6C45.1237 3.9825 46.6632 6.6525 46.4964 9.3675L46.4888 9.375ZM45.0251 8.07C44.8735 6.9225 44.3123 5.775 43.2278 5.2425C42.295 4.785 40.9678 4.7625 39.9971 5.1075C38.6851 5.58 37.9646 6.7725 37.6764 8.07H45.0251Z" fill="var(--fill-0, black)"/>
<path id="Vector_6" d="M111.657 3.78H114L110.276 8.7825L114 13.74H111.679L109.048 10.4175L106.447 13.74H104.088L107.857 8.775L104.126 3.78H106.409L109.048 7.245L111.657 3.78Z" fill="var(--fill-0, black)"/>
<path id="Vector_7" d="M73.3659 8.6475C73.3659 11.4975 71.0225 13.8075 68.133 13.8075C65.2436 13.8075 62.9002 11.4975 62.9002 8.6475C62.9002 5.7975 65.2436 3.4875 68.133 3.4875C71.0225 3.4875 73.3659 5.7975 73.3659 8.6475ZM72.0539 8.6475C72.0539 6.51 70.302 4.785 68.1406 4.785C65.9792 4.785 64.2274 6.5175 64.2274 8.6475C64.2274 10.7775 65.9792 12.51 68.1406 12.51C70.302 12.51 72.0539 10.7775 72.0539 8.6475Z" fill="var(--fill-0, black)"/>
<path id="Vector_8" d="M61.0422 0.0225V1.2525H59.8515C59.0931 1.2525 58.5547 1.9275 58.5547 2.64V3.5625H61.4441V4.7925H58.5926V13.7475H57.3109V4.785H55.6652V3.555H57.3109C57.3109 2.43 57.2199 0.8475 58.4182 0.2625C59.2069 -0.12 60.1928 0.015 61.0422 0.015V0.0225Z" fill="var(--fill-0, black)"/>
<path id="Vector_9" d="M53.4735 3.5625V4.8975C52.0857 4.71 49.947 5.145 49.8181 6.825C49.7575 7.5825 49.7878 8.535 49.7802 9.315C49.765 10.7925 49.7954 12.2625 49.7802 13.74H48.4985V3.8475H49.7423V4.8225C50.6296 3.7125 52.116 3.525 53.4735 3.5625Z" fill="var(--fill-0, black)"/>
<path id="Vector_10" d="M12.354 4.9425C12.9228 4.8825 13.3627 5.3625 13.2338 5.9175L12.4147 8.865C12.0962 9.465 11.1786 9.405 10.9586 8.76C10.8373 8.4075 11.042 8.175 11.0117 7.8375C10.989 7.5675 10.7084 7.2225 10.4353 7.1775C9.95756 7.095 9.54803 7.4475 9.10817 7.0425C8.66831 6.6375 8.8124 5.9775 9.3281 5.745L12.354 4.9425Z" fill="var(--fill-0, black)"/>
</g>
<defs>
<clipPath id="clip0_0_4">
<rect width="114" height="18" fill="white"/>
</clipPath>
</defs>
</svg>
