<svg width="491" height="126" viewBox="0 0 491 126" fill="none" xmlns="http://www.w3.org/2000/svg">

<g id="WEVOL Logo">

<g id="Color=Dark" clip-path="url(#clip0_2004_113)">
<path id="Vector" d="M149.858 75.0592V72.8742C149.858 46.0853 166.1 30.0934 201.752 30.0934C237.403 30.0934 250.754 45.2653 250.754 72.5993V78.0641H170.917C171.467 95.5584 181.93 105.536 201.889 105.536C218.544 105.536 227.078 98.2933 229.007 88.5862H250.066C248.554 104.578 234.374 117.973 201.889 117.973C166.1 117.973 149.721 101.706 149.721 75.1917L149.858 75.0543V75.0592ZM201.614 42.3929C183.03 42.3929 172.984 50.8676 171.192 66.3145H229.557C228.732 50.5975 219.644 42.3929 201.614 42.3929Z" fill="black"/>
<path id="Vector_2" d="M353.574 75.0592V72.8742C353.574 46.2227 369.954 30.0934 405.33 30.0934C440.707 30.0934 457.087 46.3602 457.087 72.8742V75.0592C457.087 101.711 440.844 117.84 405.33 117.84C369.816 117.84 353.574 101.573 353.574 75.0592ZM435.885 75.4716V72.5993C435.885 54.1475 425.147 43.4879 405.325 43.4879C385.504 43.4879 374.628 54.1475 374.628 72.5993V75.4716C374.628 93.9234 385.366 104.583 405.325 104.583C425.285 104.583 435.885 93.9234 435.885 75.4716Z" fill="black"/>
<path id="Vector_3" d="M491.221 0.157104H470.712V114.968H491.221V0.157104Z" fill="black"/>
<path id="Vector_4" d="M350.545 33.0983L321.639 109.778C320.397 112.92 317.373 115.11 313.931 115.11H288.605C285.163 115.11 282.133 113.058 280.896 109.778L251.991 33.0983H273.462L299.613 102.668H302.643L328.793 33.0983H350.545Z" fill="black"/>
<path id="Vector_5" d="M148.331 33.1032L119.426 119.76C118.326 123.04 115.159 125.362 111.717 125.362H84.1869C79.6451 125.362 76.0657 121.67 76.0657 117.3V27.7709H70.974L43.7186 109.508C42.6188 112.788 39.4518 115.11 36.0099 115.11H8.34209C3.80034 115.11 0.220947 111.418 0.220947 107.048V33.1032H20.4551V102.673H24.5844L52.8021 18.0687C53.902 14.7889 57.0689 12.4664 60.5108 12.4664H88.0412C92.583 12.4664 96.1623 16.1588 96.1623 20.5287V113.063H100.292L126.997 33.2406H148.469L148.331 33.1032Z" fill="black"/>
</g>
</g>
<defs>
<clipPath id="clip0_2004_113">
<rect width="491" height="125.205" fill="white"/>
</clipPath>
</defs>
</svg>
