<svg xmlns="http://www.w3.org/2000/svg" viewBox="0 0 242.3 242.3" fill="#fff6e5">
  <path d="M190.9,87.3l-27.2,81.8c-1,3.1-4,5.3-7.3,5.3h-25.9c-4.3,0-7.6-3.5-7.6-7.6v-84.5h-4.8l-25.7,77.1c-1,3.1-4,5.3-7.3,5.3h-26.1c-4.3,0-7.6-3.5-7.6-7.6v-69.8h19v65.6h3.9l26.6-79.8c1-3.1,4-5.3,7.3-5.3h25.9c4.3,0,7.6,3.5,7.6,7.6v87.3h3.9l25.2-75.3h20.2-.1c0-.1,0-.1,0-.1Z"/>
  <path d="M121.2,18c-56.9,0-103.2,46.3-103.2,103.2s46.3,103.2,103.2,103.2,103.2-46.3,103.2-103.2S178.1,18,121.2,18ZM121.2,242.3C54.3,242.3,0,188,0,121.2S54.3,0,121.2,0s121.2,54.3,121.2,121.2-54.3,121.2-121.2,121.2h0Z"/>
</svg>
